<svg width="522" height="522" viewBox="0 0 522 522" fill="none" xmlns="http://www.w3.org/2000/svg">
<g clip-path="url(#clip0_1_3)">
<rect width="522" height="522" fill="white"/>
<path d="M0 261V522H261H522V261V0H261H0V261ZM280.836 138.33C289.536 147.9 302.238 161.646 308.85 168.78C315.636 175.914 324.336 185.658 328.512 190.182C335.472 198.012 336.342 198.36 345.042 198.36C352.524 198.36 354.96 199.23 359.31 203.058L364.53 207.93L347.652 208.452L330.774 208.974L323.292 200.796C319.116 196.272 314.94 191.748 314.07 190.704C313.026 189.66 303.804 179.394 293.364 167.91C282.924 156.426 269.7 142.158 263.958 136.068C258.39 130.152 254.214 125.28 254.736 125.28C255.432 125.28 254.91 124.236 253.692 122.844C250.734 119.712 249.864 120.756 251.952 124.758C253.518 127.542 252.474 129.282 246.036 135.72C241.86 139.896 238.38 143.898 238.38 144.768C238.38 145.464 237.51 146.16 236.466 146.16C235.422 146.16 234.9 144.594 235.422 142.68C235.944 140.766 235.596 139.2 234.552 139.2C233.682 139.2 233.508 138.33 234.03 137.46C235.77 134.85 238.032 135.372 238.902 138.678C239.598 141.636 239.598 141.636 240.99 138.504C241.86 136.59 241.512 134.85 240.294 134.154C238.902 133.284 239.424 131.892 241.86 129.63C243.774 127.89 245.34 127.368 245.34 128.412C245.34 129.63 244.644 130.5 243.6 130.5C242.73 130.5 241.86 131.196 241.86 132.24C241.86 134.676 243.948 134.328 247.95 131.196C251.43 128.586 251.43 128.586 248.124 125.976C246.21 124.584 245.514 123.54 246.558 123.54C247.776 123.54 249.168 121.974 249.69 119.886C250.734 116.928 251.256 116.754 253.518 118.494C255.606 120.408 255.954 120.234 255.78 118.146C254.736 111.36 255.954 110.664 260.478 115.71C262.914 118.494 272.136 128.76 280.836 138.33ZM232.116 143.55C230.898 146.334 227.94 147.204 227.94 144.594C227.94 143.202 229.158 142.332 232.638 141.114C232.812 140.94 232.638 142.158 232.116 143.55ZM296.322 193.488L322.77 222.546H349.914L376.884 222.72L381.93 227.94L386.976 233.16H352.524C319.116 233.16 318.246 232.986 314.418 229.158C305.022 219.414 262.044 172.26 255.78 164.778C253.518 162.168 250.908 160.08 249.864 160.08C248.82 160.254 245.688 163.212 242.73 166.866C237.162 174 235.77 174.348 234.378 168.78C233.682 166.344 235.248 163.212 239.424 158.688C242.73 155.208 245.34 152.946 245.34 153.816C245.34 154.86 243.6 157.296 241.512 159.558C239.424 161.82 237.51 165.3 237.162 167.562C236.64 170.52 238.032 169.824 243.426 163.56C247.95 158.34 249.69 154.86 248.82 153.294C248.124 151.902 248.298 149.292 249.516 147.552C251.256 144.42 252.126 145.116 260.652 154.338C265.698 159.906 281.706 177.48 296.322 193.488ZM226.722 157.122C219.24 165.822 217.5 167.04 217.5 164.604C217.5 163.212 219.24 160.776 221.328 159.384C224.286 157.296 224.634 156.078 223.242 154.686C222.198 153.642 221.676 151.554 222.198 150.162C223.068 148.248 223.764 148.248 226.374 150.684C229.506 153.468 229.506 153.816 226.722 157.122ZM234.03 149.64C233.508 150.51 232.29 151.38 231.246 151.38C230.376 151.38 229.68 150.51 229.68 149.64C229.68 148.596 230.898 147.9 232.464 147.9C233.856 147.9 234.552 148.596 234.03 149.64ZM213.324 164.256C211.758 166.692 211.062 169.824 211.758 171.564C212.628 174 212.28 174.174 209.148 172.434C204.45 169.824 204.45 169.128 209.148 164.082C214.02 158.862 216.978 158.862 213.324 164.256ZM228.636 174.174C224.46 178.872 223.416 176.958 227.418 171.738C229.158 169.302 230.898 168.084 231.246 169.128C231.42 169.998 230.376 172.26 228.636 174.174ZM206.712 175.392C207.756 178.524 204.102 177.828 202.884 174.696C202.188 172.956 202.71 172.26 203.928 172.608C204.972 172.956 206.364 174.348 206.712 175.392ZM232.986 176.958C226.548 185.658 224.112 187.398 220.284 186.702C217.152 186.006 215.76 186.702 214.89 189.486C214.368 191.574 212.976 193.14 212.106 193.14C210.018 193.14 212.802 187.572 216.456 184.44C218.37 183.048 219.936 182.874 221.502 184.092C222.894 185.31 224.286 185.136 226.026 183.222C227.94 181.134 227.94 180.786 226.026 181.134C221.328 181.656 219.066 180.96 220.11 179.22C220.632 178.176 223.068 178.002 225.504 178.524C228.462 179.22 230.028 178.698 230.724 176.784C231.246 175.218 232.638 174 233.508 174C234.552 174 234.378 175.392 232.986 176.958ZM203.232 184.092C201.84 185.658 200.796 185.832 200.448 184.614C200.1 183.57 199.056 182.7 198.012 182.7C196.968 182.7 196.62 183.744 197.142 184.962C197.664 186.354 197.316 188.442 196.272 189.834C194.88 191.748 194.706 191.748 195.402 189.312C196.794 184.962 194.706 184.092 191.922 187.746C190.704 189.66 190.182 192.27 190.704 193.836C191.226 195.402 190.878 196.62 189.834 196.62C188.79 196.62 187.92 195.75 187.92 194.88C187.92 193.836 187.05 193.14 186.006 193.14C184.614 193.14 184.788 194.01 186.18 195.924C188.094 198.012 187.92 199.056 185.31 201.492C183.57 203.058 182.7 203.406 183.396 202.362C184.092 201.144 183.918 198.882 183.222 197.49C182.004 195.576 183.57 192.792 188.616 187.224C194.532 180.96 196.272 180.09 199.23 181.482C202.014 182.874 202.362 182.7 200.622 180.786C196.968 177.132 198.012 174.87 201.84 178.35C204.624 180.786 204.972 182.004 203.232 184.092ZM271.788 204.798C284.49 218.718 298.41 234.03 302.76 238.554L310.59 246.906L355.308 247.428L400.2 247.95L404.898 252.648L409.77 257.52H357.396H305.022L288.84 239.598C250.038 196.794 244.818 191.4 243.426 192.444C242.556 192.966 241.86 192.444 241.86 191.574C241.86 190.53 242.73 189.66 243.6 189.66C244.644 189.66 245.34 188.79 245.34 187.92C245.34 185.484 243.252 185.832 239.25 188.964C236.118 191.4 236.118 191.748 238.554 193.662C240.99 195.576 240.642 196.446 235.944 201.492C232.116 205.494 229.506 206.886 227.418 206.016C224.286 204.798 223.416 201.84 226.2 201.84C227.244 201.84 227.94 202.71 227.94 203.928C227.94 205.494 228.462 205.494 230.028 203.928C231.768 202.188 231.768 201.318 229.854 200.274C227.94 199.056 229.506 196.62 236.292 189.834C241.164 184.962 244.818 180.96 244.296 180.96C243.774 180.96 243.948 180.09 244.47 179.22C246.036 176.61 246.732 177.132 271.788 204.798ZM220.98 190.53C220.98 190.878 218.196 194.358 214.716 197.838C209.844 202.71 208.626 203.406 209.496 200.622C210.192 198.534 209.844 196.446 208.8 195.75C207.93 195.228 206.886 195.75 206.886 196.968C206.712 198.186 206.364 200.448 206.19 201.84C206.19 203.232 204.972 206.712 203.754 209.67C202.188 213.672 201.318 214.194 200.1 212.28C199.056 210.54 199.404 208.8 201.144 206.712C202.71 205.146 203.406 203.058 202.884 202.014C202.188 201.144 203.058 198.708 204.798 196.794C207.06 194.01 208.278 193.662 210.192 195.402C212.28 196.968 213.324 196.62 215.586 193.662C218.196 190.182 220.98 188.442 220.98 190.53ZM180.438 203.58L180.786 208.8H169.302H157.644L162.69 203.58C166.344 199.752 169.302 198.36 173.826 198.36C179.568 198.36 180.09 198.882 180.438 203.58ZM197.838 207.234C195.402 208.626 195.228 209.67 196.968 212.802C198.708 216.282 198.708 216.456 196.098 214.194C193.488 212.28 193.14 212.28 193.14 214.542C193.14 215.934 194.184 217.674 195.402 218.196C196.446 218.718 195.75 218.718 193.488 218.196C189.486 217.152 183.048 221.676 186.006 223.59C186.876 224.112 188.094 223.764 188.79 222.72C189.312 221.85 190.704 220.98 191.748 220.98C192.792 220.98 191.574 223.068 188.964 225.504C186.528 228.114 184.44 230.898 184.44 231.594C184.44 232.464 173.826 233.16 160.95 233.16C148.074 233.16 137.46 232.638 137.46 231.768C137.634 231.072 139.026 228.81 140.766 226.548C143.898 223.068 145.464 222.72 162.69 222.72H181.308L190.182 213.324C195.054 208.104 199.578 204.102 200.1 204.624C200.448 205.146 199.578 206.364 197.838 207.234ZM228.288 209.496C229.506 208.8 228.984 209.844 227.244 211.932C224.982 214.542 222.72 215.412 220.632 214.716C218.544 214.02 216.282 215.064 214.02 217.848C212.106 220.11 210.714 221.154 210.54 220.284C210.54 219.588 212.454 216.63 214.716 213.846C218.37 209.67 219.24 209.322 220.98 211.584C224.112 215.238 225.156 213.324 222.72 208.452C220.98 204.798 220.98 204.624 223.416 207.756C224.982 209.67 226.896 210.366 228.288 209.496ZM243.948 212.106C244.296 212.976 252.648 222.546 262.74 233.334C272.832 244.122 285.186 257.52 290.406 263.088L299.802 273.18H361.224C420.558 273.18 422.994 273.354 426.3 276.66C428.214 278.574 429.78 280.662 429.78 281.358C429.78 282.228 398.982 282.75 361.398 282.75H293.19L266.22 253.17C251.43 236.988 239.25 222.546 239.424 220.98C239.598 219.588 239.772 216.63 239.772 214.368C240.12 210.54 242.73 208.974 243.948 212.106ZM236.64 218.37C235.074 220.284 235.074 220.98 236.466 220.98C237.684 220.98 238.206 221.676 237.51 222.72C236.988 223.59 235.422 223.938 233.856 223.242C231.594 222.372 231.594 221.85 234.204 219.066C237.684 215.238 239.772 214.542 236.64 218.37ZM220.98 218.196C220.98 218.718 220.284 219.588 219.24 220.11C218.37 220.632 217.5 220.284 217.5 219.414C217.5 218.37 218.37 217.5 219.24 217.5C220.284 217.5 220.98 217.848 220.98 218.196ZM214.02 223.59C217.5 221.502 215.76 224.286 209.496 230.898C204.45 236.118 203.406 236.64 204.276 233.508C205.842 228.984 203.928 228.462 200.796 232.638C199.23 234.9 199.23 236.466 200.448 238.032C201.84 239.598 201.666 239.946 199.404 239.076C197.316 238.206 196.446 238.728 196.62 240.294C197.49 245.34 196.446 247.08 192.966 247.08C191.052 247.08 190.008 246.21 190.53 245.34C191.052 244.296 190.704 243.6 189.486 243.6C188.268 243.6 187.92 243.078 188.442 242.556C189.138 241.86 190.704 242.208 191.922 243.252C195.054 245.862 197.142 243.774 194.706 240.642C193.14 239.076 193.314 238.38 194.706 238.38C195.75 238.38 196.62 237.51 196.62 236.64C196.62 235.596 198.36 232.464 200.448 229.68C203.754 225.156 204.45 224.808 206.19 227.418C207.93 229.68 208.626 229.854 209.67 227.94C210.54 226.374 210.366 225.33 209.148 224.808C207.93 224.46 207.06 223.416 207.06 222.372C207.06 221.328 208.104 221.328 209.67 222.72C211.062 223.764 212.976 224.286 214.02 223.59ZM229.68 227.94C228.288 228.81 227.592 230.028 228.288 230.55C228.81 231.246 231.594 230.376 234.378 228.636C238.206 226.2 237.684 227.07 231.942 233.16C227.766 237.336 224.46 241.512 224.46 242.208C224.46 242.904 223.764 243.6 222.72 243.6C221.85 243.6 220.98 242.382 220.98 240.816C220.98 239.424 221.85 238.728 222.72 239.25C223.764 239.772 224.46 239.598 224.46 238.554C224.46 237.684 223.764 236.292 222.72 235.77C221.85 235.248 220.98 233.682 220.98 232.638C220.98 231.42 222.198 231.942 223.416 233.508C226.2 237.336 227.94 237.51 227.94 234.03C227.94 232.638 227.07 231.42 225.852 231.42C224.808 231.42 225.33 229.854 227.07 227.94C228.81 226.026 230.724 224.808 231.246 225.33C231.768 226.026 231.072 227.07 229.68 227.94ZM218.196 240.99C216.978 243.774 214.02 244.644 214.02 242.034C214.02 240.642 215.238 239.772 218.718 238.554C218.892 238.38 218.718 239.598 218.196 240.99ZM251.952 259.608C259.608 267.96 270.396 279.966 275.964 286.23L286.056 297.54H366.444H447.006L449.616 301.368C451.182 303.456 452.4 305.892 452.4 306.588C452.4 307.458 414.12 307.98 367.14 307.98C286.926 307.98 281.706 307.806 278.922 304.848C277.182 303.108 270.744 296.148 264.48 289.536C258.216 282.75 249.168 273.006 244.296 267.786L235.248 258.042L229.158 263.958C221.85 270.744 221.676 270.744 220.458 266.046C219.762 263.61 221.676 260.304 227.244 254.388C231.42 249.864 234.9 245.514 234.9 244.818C234.9 241.86 238.032 244.644 251.952 259.608ZM188.616 248.124C189.138 249.516 188.79 252.3 187.92 254.214C186.18 257.346 183.744 257.52 150.51 257.52C130.848 257.52 114.84 256.824 114.84 256.128C114.84 255.258 116.406 253.17 118.494 251.256C121.8 248.298 125.454 247.95 152.598 247.602C169.476 247.428 183.57 246.732 184.092 246.21C185.832 244.644 187.572 245.34 188.616 248.124ZM212.802 254.562C205.32 263.262 203.58 264.48 203.58 262.044C203.58 260.652 205.32 258.216 207.408 256.824C210.366 254.736 210.714 253.518 209.322 252.126C208.278 251.082 207.756 248.994 208.278 247.602C209.148 245.688 209.844 245.688 212.454 248.124C215.586 250.908 215.586 251.256 212.802 254.562ZM220.11 247.08C219.588 247.95 218.37 248.82 217.326 248.82C216.456 248.82 215.76 247.95 215.76 247.08C215.76 246.036 216.978 245.34 218.544 245.34C219.936 245.34 220.632 246.036 220.11 247.08ZM199.404 261.696C197.838 264.132 197.142 267.438 197.838 269.004C198.534 271.092 198.36 271.614 196.968 270.744C195.576 270.048 194.88 270.744 194.706 272.658C194.706 274.398 193.836 273.528 192.966 270.57C191.748 266.394 192.27 264.654 195.228 261.522C200.1 256.302 202.884 256.476 199.404 261.696ZM214.716 271.614C210.54 276.312 209.496 274.398 213.498 269.178C215.238 266.742 216.978 265.524 217.326 266.568C217.5 267.438 216.456 269.7 214.716 271.614ZM187.92 275.79C186.354 277.704 186.354 278.4 187.746 278.4C188.79 278.4 189.66 279.096 189.66 280.14C189.66 281.184 172.26 281.88 140.94 281.88C114.144 281.88 92.22 281.532 92.22 281.01C92.22 280.488 93.612 278.574 95.178 276.66C98.136 273.354 100.224 273.18 142.158 273.18C174.348 273.18 186.354 272.658 187.224 271.092C188.268 269.526 188.79 269.526 189.312 271.092C189.66 272.31 188.964 274.398 187.92 275.79ZM219.066 274.398C212.106 283.62 212.28 283.62 208.974 280.488C204.972 276.66 206.19 274.572 211.584 275.964C214.542 276.66 216.108 276.138 216.804 274.224C217.326 272.658 218.718 271.44 219.588 271.44C220.632 271.44 220.458 272.832 219.066 274.398ZM207.93 281.88C208.452 282.75 207.408 283.62 205.494 283.62C203.58 283.62 201.666 285.186 200.97 287.1C200.448 289.014 199.056 290.58 198.186 290.58C196.272 290.58 197.49 287.796 201.492 283.098C204.45 279.792 206.364 279.27 207.93 281.88ZM207.06 287.622C207.06 288.84 192.966 303.108 192.27 302.412C191.4 301.542 203.928 287.448 205.842 287.274C206.538 287.1 207.06 287.274 207.06 287.622ZM192.444 297.366C190.878 299.106 190.008 301.716 190.704 303.282C191.226 305.022 190.704 306.588 189.312 307.11C188.094 307.632 160.254 307.806 127.368 307.632L67.86 307.11L72.21 302.238L76.734 297.54H133.11C187.92 297.54 189.66 297.366 191.748 294.06C192.966 292.146 194.358 291.45 194.532 292.32C194.88 293.364 194.01 295.626 192.444 297.366ZM326 353C330.778 354.28 334.08 355.482 334.08 355.83C334.08 356.178 333.21 358.44 332.166 360.702C330.426 364.53 329.208 364.878 320.508 364.704C311.808 364.53 310.59 364.878 310.068 368.01C309.72 370.968 311.46 372.534 319.464 375.84C332.862 381.234 335.82 384.54 335.82 393.762C335.82 407.16 328.164 411.858 309.372 410.118C296.844 409.074 295.104 407.682 297.366 401.418C298.932 397.242 299.628 396.894 303.63 398.46C310.416 401.07 319.464 400.548 322.074 397.416C325.38 393.414 322.422 389.934 312.156 386.106C300.672 381.756 296.67 377.406 296.67 368.706C296.67 360.702 301.368 355.308 309.894 353.22C313.2 352.524 314 352 318 352C318 352 322 352 326 353ZM220.806 355.134C223.764 356.178 227.07 358.44 227.94 360.18C230.376 364.704 230.028 374.796 227.592 377.232C226.026 378.798 226.374 380.19 229.332 383.322C234.726 389.064 234.378 397.068 228.288 403.854C224.112 408.552 222.024 409.422 211.932 410.118C205.668 410.64 197.664 410.64 194.184 409.944L187.92 408.726V382.104C187.92 367.488 188.442 354.96 189.138 354.438C191.052 352.524 214.716 353.046 220.806 355.134ZM255.78 364.008L255.954 374.97L265.524 364.008C274.398 354.264 275.964 353.22 282.054 353.22C285.708 353.22 288.84 353.742 288.84 354.264C288.84 354.96 283.968 360.876 278.052 367.488L267.438 379.494L273.528 385.932C280.14 392.892 290.58 406.986 290.58 408.9C290.58 409.596 287.796 410.118 284.49 410.292C277.878 410.64 276.834 409.77 265.698 396.198C262.044 391.674 258.39 388.02 257.52 388.02C256.476 388.02 255.78 393.066 255.78 399.33V410.64H249.69H243.6V381.93V353.22H249.69H255.78V364.008Z" fill="#24253C"/>
<path d="M223.938 153.294C225.156 154.512 226.548 155.034 227.07 154.512C227.592 153.99 226.722 152.946 224.982 152.424C222.546 151.38 222.372 151.554 223.938 153.294Z" fill="#24253C"/>
<path d="M233.682 194.358C230.55 195.402 230.898 200.1 233.856 200.1C236.466 200.1 239.076 195.402 236.988 194.358C236.292 193.836 234.726 194.01 233.682 194.358Z" fill="#24253C"/>
<path d="M180.96 225.33C180.96 228.114 183.744 228.81 185.136 226.374C185.658 225.504 184.962 224.46 183.57 223.764C182.004 223.242 180.96 223.764 180.96 225.33Z" fill="#24253C"/>
<path d="M226.374 258.042C223.242 261.348 221.328 264.48 222.372 265.176C224.46 266.394 233.682 256.65 232.812 254.04C232.464 252.996 229.68 254.91 226.374 258.042Z" fill="#24253C"/>
<path d="M184.44 250.56C184.44 251.43 185.31 252.3 186.18 252.3C187.224 252.3 187.92 251.43 187.92 250.56C187.92 249.516 187.224 248.82 186.18 248.82C185.31 248.82 184.44 249.516 184.44 250.56Z" fill="#24253C"/>
<path d="M210.018 250.734C211.236 251.952 212.628 252.474 213.15 251.952C213.672 251.43 212.802 250.386 211.062 249.864C208.626 248.82 208.452 248.994 210.018 250.734Z" fill="#24253C"/>
<path d="M201.84 369.576C201.84 374.97 202.362 375.84 205.842 375.84C214.542 375.84 217.674 373.926 217.152 369.054C216.63 365.052 215.76 364.53 209.322 364.008L201.84 363.486V369.576Z" fill="#24253C"/>
<path d="M201.84 393.24C201.84 400.026 202.014 400.2 207.93 400.2C215.934 400.2 221.85 394.632 219.24 389.76C217.848 387.15 215.586 386.28 209.67 386.28H201.84V393.24Z" fill="#24253C"/>
</g>
<defs>
<clipPath id="clip0_1_3">
<rect width="522" height="522" fill="white"/>
</clipPath>
</defs>
</svg>
